<?xml version="1.0" standalone="no"?>
<!DOCTYPE svg PUBLIC "-//W3C//DTD SVG 20010904//EN"
 "http://www.w3.org/TR/2001/REC-SVG-20010904/DTD/svg10.dtd">
<svg version="1.0" xmlns="http://www.w3.org/2000/svg"
 width="512.000000pt" height="512.000000pt" viewBox="0 0 512.000000 512.000000"
 preserveAspectRatio="xMidYMid meet">
<metadata>
Created by potrace 1.11, written by Peter Selinger 2001-2013
</metadata>
<g transform="translate(0.000000,512.000000) scale(0.100000,-0.100000)"
fill="#000000" stroke="none">
<path d="M805 5108 c-394 -73 -688 -352 -783 -743 -16 -65 -17 -203 -17 -1790
0 -946 3 -1740 7 -1765 54 -346 310 -648 643 -758 147 -49 62 -47 1890 -47
946 0 1738 3 1760 6 353 55 667 324 770 659 45 148 44 118 42 1930 l-3 1715
-22 80 c-63 222 -197 417 -378 548 -99 71 -254 137 -382 161 -66 13 -314 15
-1777 14 -1000 0 -1721 -4 -1750 -10z m2064 -1393 c21 -21 24 -2328 2 -2362
-13 -23 -15 -23 -245 -23 -128 0 -238 5 -246 10 -13 8 -15 124 -16 935 0 509
-3 927 -5 929 -2 3 -83 -36 -179 -84 -96 -49 -185 -89 -197 -90 -13 0 -29 10
-37 23 -22 35 -91 356 -80 374 20 32 564 296 624 303 25 3 117 4 205 2 122 -2
163 -6 174 -17z"/>
</g>
</svg>
